<svg width="1150" height="34" fill="none" xmlns="http://www.w3.org/2000/svg"><path d="M1168.8 0c-15.65 0-15.65 14-31.19 14-15.54 0-15.65-14-31.2-14-15.54 0-15.65 14-31.19 14-15.65 0-15.65-14-31.31-14-15.65 0-15.65 14-31.19 14-15.65 0-15.65-14-31.2-14-15.65 0-15.65 14-31.2 14-15.54 0-15.97-14-31.52-14-15.65 0-15.65 14-31.2 14-15.53 0-15.75-14-31.3-14-15.65 0-15.65 14-31.2 14-15.64 0-15.64-14-31.3-14-15.65 0-15.65 14-31.2 14-15.64 0-15.64-14-31.19-14-15.54 0-15.76 14-31.41 14S684.35 0 668.8 0c-15.65 0-15.65 14-31.2 14-15.64 0-15.64-14-31.3-14-15.65 0-15.65 14-31.2 14-15.64 0-15.64-14-31.19-14-15.65 0-15.65 14-31.2 14-15.65 0-15.65-14-31.19-14-15.65 0-15.65 14-31.3 14-15.66 0-15.66-14-31.3-14-15.66 0-15.66 14-31.31 14-15.65 0-15.65-14-31.3-14-15.66 0-15.66 14-31.31 14-15.65 0-15.65-14-31.3-14-15.66 0-15.66 14-31.3 14-15.66 0-15.66-14-31.31-14-15.66 0-15.66 14-31.2 14-15.65 0-15.65-14-31.3-14-15.66 0-15.66 14-31.3 14-15.66 0-15.66-14-31.31-14-15.65 0-15.65 14-31.3 14C59.01 14 59.01 0 43.36 0 28.15 0 28.15 14 12.5 14S-3.15 0-18.7 0C-34.24 0-34.35 14-50 14v20h1250V14c-15.65 0-15.65-14-31.2-14z" fill="#fff"/></svg>