<svg width="1050" height="23" fill="none" xmlns="http://www.w3.org/2000/svg"><path d="M1050 23c-8.22 0-12.51-4.6-15.98-8.3-3.1-3.3-5.39-5.7-10.22-5.7-4.93 0-7.13 2.4-10.23 5.7-3.47 3.7-7.76 8.3-15.98 8.3s-12.5-4.6-15.98-8.3c-3.1-3.3-5.38-5.7-10.22-5.7-4.84 0-7.13 2.4-10.23 5.7-3.47 3.7-7.76 8.3-15.98 8.3-8.21 0-12.5-4.6-15.98-8.3-3.1-3.3-5.38-5.7-10.22-5.7-4.93 0-7.12 2.4-10.23 5.7-3.47 3.7-7.76 8.3-15.98 8.3-8.21 0-12.5-4.6-15.97-8.3-3.1-3.3-5.4-5.7-10.23-5.7-4.93 0-7.12 2.4-10.23 5.7-3.83 3.7-8.12 8.3-16.34 8.3s-12.5-4.6-15.98-8.3c-3.1-3.3-5.38-5.7-10.22-5.7-4.93 0-7.13 2.4-10.23 5.7-3.47 3.7-7.76 8.3-15.98 8.3s-12.5-4.6-15.98-8.3c-3.1-3.3-5.38-5.7-10.22-5.7-4.93 0-7.13 2.4-10.23 5.7-3.65 3.7-7.94 8.3-16.16 8.3-8.22 0-12.5-4.6-15.98-8.3-3.1-3.3-5.38-5.7-10.22-5.7-4.93 0-7.13 2.4-10.23 5.7-3.47 3.7-7.76 8.3-15.98 8.3s-12.5-4.6-15.98-8.3c-3.1-3.3-5.38-5.7-10.22-5.7-4.84 0-7.13 2.4-10.23 5.7-3.56 3.7-7.94 8.3-16.16 8.3-8.22 0-12.5-4.6-15.98-8.3-3.1-3.3-5.38-5.7-10.22-5.7-4.93 0-7.13 2.4-10.23 5.7-3.47 3.7-7.76 8.3-15.98 8.3s-12.5-4.6-15.98-8.3c-3.1-3.3-5.38-5.7-10.22-5.7-4.93 0-7.13 2.4-10.23 5.7-3.47 3.7-7.76 8.3-15.98 8.3-8.21 0-12.5-4.6-15.98-8.3-3.1-3.3-5.38-5.7-10.22-5.7-4.84 0-7.12 2.4-10.23 5.7-3.47 3.7-7.76 8.3-15.98 8.3-8.21 0-12.5-4.6-15.97-8.3-3.1-3.3-5.4-5.7-10.23-5.7-4.93 0-7.12 2.4-10.23 5.7-3.47 3.7-7.76 8.3-15.97 8.3-8.22 0-12.51-4.6-15.98-8.3-3.1-3.3-5.39-5.7-10.23-5.7-4.93 0-7.12 2.4-10.23 5.7-3.47 3.7-7.76 8.3-15.97 8.3-8.22 0-12.51-4.6-15.98-8.3-3.1-3.3-5.39-5.7-10.23-5.7-4.93 0-7.12 2.4-10.22 5.7-3.47 3.7-7.76 8.3-15.98 8.3s-12.51-4.6-15.98-8.3c-3.1-3.3-5.39-5.7-10.23-5.7-4.84 0-7.12 2.4-10.22 5.7-3.47 3.7-7.76 8.3-15.98 8.3s-12.51-4.6-15.98-8.3c-3.1-3.3-5.39-5.7-10.22-5.7-4.94 0-7.13 2.4-10.23 5.7-3.47 3.7-7.76 8.3-15.98 8.3s-12.5-4.6-15.98-8.3c-3.1-3.3-5.38-5.7-10.22-5.7-4.93 0-7.13 2.4-10.23 5.7-3.47 3.7-7.76 8.3-15.98 8.3s-12.5-4.6-15.98-8.3c-3.1-3.3-5.38-5.7-10.22-5.7-4.93 0-7.12 2.4-10.23 5.7-4.29 3.7-8.67 8.3-16.89 8.3s-12.5-4.6-15.98-8.3C85.92 11.4 83.63 9 78.8 9c-4.93 0-7.13 2.4-10.23 5.7-3.47 3.7-7.76 8.3-15.98 8.3s-12.5-4.6-15.98-8.3C33.41 11.4 31.13 9 26.3 9c-4.93 0-7.13 2.4-10.23 5.7C12.51 18.4 8.22 23 0 23v-9c4.93 0 7.12-2.4 10.23-5.7C13.7 4.6 17.99 0 26.3 0c8.21 0 12.5 4.6 15.97 8.3 3.1 3.3 5.4 5.7 10.23 5.7 4.93 0 7.12-2.4 10.23-5.7C66.2 4.6 70.58 0 78.8 0 87 0 91.3 4.6 94.77 8.3c3.1 3.3 5.4 5.7 10.23 5.7 4.93 0 7.12-2.4 10.23-5.7C118.7 4.6 122.99 0 131.2 0c8.22 0 12.51 4.6 15.98 8.3 3.1 3.3 5.39 5.7 10.23 5.7 4.93 0 7.12-2.4 10.22-5.7C171.1 4.6 175.4 0 183.61 0c8.22 0 12.51 4.6 15.98 8.3 3.1 3.3 5.39 5.7 10.23 5.7 4.93 0 7.12-2.4 10.22-5.7 3.47-3.7 7.76-8.3 15.98-8.3S248.53 4.6 252 8.3c3.1 3.3 5.39 5.7 10.23 5.7 4.93 0 7.12-2.4 10.22-5.7 3.47-3.7 7.76-8.3 15.98-8.3s12.5 4.6 15.98 8.3c3.1 3.3 5.39 5.7 10.22 5.7 4.94 0 7.13-2.4 10.23-5.7 3.47-3.7 7.76-8.3 15.98-8.3s12.5 4.6 15.98 8.3c3.1 3.3 5.38 5.7 10.22 5.7 4.84 0 7.13-2.4 10.23-5.7 3.47-3.7 7.76-8.3 15.98-8.3 8.21 0 12.5 4.6 15.98 8.3 3.1 3.3 5.38 5.7 10.22 5.7 4.93 0 7.12-2.4 10.23-5.7 3.47-3.7 7.76-8.3 15.98-8.3 8.21 0 12.5 4.6 15.97 8.3 3.1 3.3 5.4 5.7 10.23 5.7 4.93 0 7.12-2.4 10.23-5.7 3.47-3.7 7.76-8.3 15.98-8.3 8.21 0 12.5 4.6 15.97 8.3 3.1 3.3 5.39 5.7 10.23 5.7 4.93 0 7.12-2.4 10.23-5.7 3.47-3.7 7.76-8.3 15.97-8.3 8.22 0 12.51 4.6 15.98 8.3 3.1 3.3 5.39 5.7 10.23 5.7 4.93 0 7.12-2.4 10.22-5.7 3.47-3.7 7.76-8.3 15.98-8.3s12.51 4.6 15.98 8.3c3.1 3.3 5.39 5.7 10.23 5.7 4.93 0 7.12-2.4 10.22-5.7 3.47-3.7 7.76-8.3 15.98-8.3s12.51 4.6 15.98 8.3c3.1 3.3 5.39 5.7 10.23 5.7 4.93 0 7.12-2.4 10.22-5.7C695.2 4.6 699.48 0 707.7 0s12.5 4.6 15.98 8.3c3.1 3.3 5.39 5.7 10.22 5.7 4.94 0 7.13-2.4 10.23-5.7C748.7 4.6 752.99 0 761.3 0c8.21 0 12.5 4.6 15.97 8.3 3.1 3.3 5.4 5.7 10.23 5.7 4.84 0 7.12-2.4 10.23-5.7C801.2 4.6 805.49 0 813.7 0c8.22 0 12.51 4.6 15.98 8.3 3.1 3.3 5.39 5.7 10.23 5.7 4.84 0 7.12-2.4 10.23-5.7C853.7 4.6 857.99 0 866.3 0c8.3 0 12.5 4.6 15.97 8.3 3.1 3.3 5.4 5.7 10.23 5.7 4.84 0 7.12-2.4 10.23-5.7C906.2 4.6 910.49 0 918.7 0c8.22 0 12.51 4.6 15.98 8.3 3.1 3.3 5.39 5.7 10.23 5.7 4.93 0 7.12-2.4 10.23-5.7C958.6 4.6 962.9 0 971.1 0c8.22 0 12.51 4.6 15.98 8.3 3.1 3.3 5.39 5.7 10.23 5.7 4.84 0 7.12-2.4 10.22-5.7 3.47-3.7 7.76-8.3 15.98-8.3s12.51 4.6 15.98 8.3c3.1 3.3 5.39 5.7 10.23 5.7v9h.27z" fill="#F1F1F1"/></svg>